<svg xmlns="http://www.w3.org/2000/svg" viewBox="0 0 512 512">
  <defs>
    <linearGradient id="bg" x1="0%" y1="0%" x2="100%" y2="100%">
      <stop offset="0%" style="stop-color:#E8A87C"/>
      <stop offset="100%" style="stop-color:#D4956A"/>
    </linearGradient>
    <linearGradient id="page" x1="0%" y1="0%" x2="0%" y2="100%">
      <stop offset="0%" style="stop-color:#FFFDF8"/>
      <stop offset="100%" style="stop-color:#FFF3DD"/>
    </linearGradient>
  </defs>
  <rect width="512" height="512" rx="96" fill="url(#bg)"/>
  <rect x="120" y="80" width="280" height="352" rx="16" fill="url(#page)" opacity="0.95"/>
  <line x1="168" y1="80" x2="168" y2="432" stroke="#E8A87C" stroke-width="3" opacity="0.4"/>
  <rect x="192" y="140" width="170" height="12" rx="6" fill="#D4BFA8" opacity="0.7"/>
  <rect x="192" y="176" width="140" height="10" rx="5" fill="#E5D6C5" opacity="0.5"/>
  <rect x="192" y="206" width="160" height="10" rx="5" fill="#E5D6C5" opacity="0.5"/>
  <rect x="192" y="236" width="120" height="10" rx="5" fill="#E5D6C5" opacity="0.5"/>
  <text x="256" y="370" font-family="Arial,sans-serif" font-weight="bold" font-size="80" fill="#E8A87C" text-anchor="middle" opacity="0.3">V</text>
  <g transform="translate(320,300) rotate(35)">
    <rect x="-6" y="-80" width="12" height="70" rx="2" fill="#4A3F35"/>
    <polygon points="-6,-80 6,-80 0,-96" fill="#E8A87C"/>
    <rect x="-6" y="-14" width="12" height="14" rx="1" fill="#C4A882"/>
  </g>
</svg>
